<mxfile host="app.diagrams.net" modified="2023-07-09T11:00:01.885Z" agent="Mozilla/5.0 (Macintosh; Intel Mac OS X 10_15_7) AppleWebKit/537.36 (KHTML, like Gecko) Chrome/108.0.0.0 Safari/537.36" version="21.6.1" etag="NMCDoAzVKtSGUUsq5c0w" type="github">
  <diagram name="Page-1" id="qXkWyStzO-C2bLhAyOgx">
    <mxGraphModel>
      <root>
        <mxCell id="0" />
        <mxCell id="1" parent="0" />
      </root>
    </mxGraphModel>
  </diagram>
</mxfile>
